<svg xmlns="http://www.w3.org/2000/svg" width="560" height="560" viewBox="0 0 560 560">
    <defs>
        <radialGradient id="a" cy="47.887%" r="53.61%" fx="50%" fy="47.887%" gradientTransform="scale(.99956 1) rotate(89.635 .5 .479)">
            <stop offset="0%" stop-color="#1A1A1A" stop-opacity="0"/>
            <stop offset="24.005%" stop-color="#A08766" stop-opacity=".12"/>
            <stop offset="49.987%" stop-color="#FFD6A0" stop-opacity=".12"/>
            <stop offset="76.605%" stop-color="#A08766" stop-opacity=".12"/>
            <stop offset="100%" stop-color="#1A1A1A" stop-opacity="0"/>
        </radialGradient>
    </defs>
    <path fill="url(#a)" fill-rule="evenodd" d="M282.528 334.696l9.51 224.78c-3.994.168-8.006.274-12.042.274-3.928 0-7.83-.102-11.72-.262l9.207-224.792c1.672.07 3.363.07 5.045 0zm-14.332-1.166c1.496.32 3.028.58 4.552.771l-28.146 223.23a279.376 279.376 0 0 1-23.421-3.989zm23.638-.009l47.293 219.953a279.299 279.299 0 0 1-23.415 4.019l-28.396-223.201a53.376 53.376 0 0 0 4.518-.771zm-32.28-2.63a53.808 53.808 0 0 0 4.282 1.51L198.18 547.59a278.138 278.138 0 0 1-22.422-7.904zm40.925-.018l84.04 208.697a277.223 277.223 0 0 1-22.397 7.93l-65.896-215.123a52.196 52.196 0 0 0 4.252-1.504zm-49.113-4.117a54.468 54.468 0 0 0 4.042 2.26L154.095 529.898a279.838 279.838 0 0 1-20.75-11.596zm57.324-.037L426.874 518.16a279.78 279.78 0 0 1-20.72 11.611l-101.519-200.78a54.673 54.673 0 0 0 4.055-2.272zm-64.946-5.603a56.737 56.737 0 0 0 3.722 3.004l-133.81 180.87a281.498 281.498 0 0 1-18.49-14.93zm72.527-.02l148.745 168.796a280.758 280.758 0 0 1-18.47 14.946L312.608 324.06a56.066 56.066 0 0 0 3.663-2.963zm-79.138-6.868a57.185 57.185 0 0 0 3.167 3.59L77.995 473.63a281.71 281.71 0 0 1-15.711-17.825zm85.754-.033l174.981 141.413a281.469 281.469 0 0 1-15.694 17.844L319.74 317.772a56.861 56.861 0 0 0 3.148-3.577zm-91.025-7.732a55.049 55.049 0 0 0 2.458 3.976L48.115 436.733a280.468 280.468 0 0 1-12.478-20.215zm96.297-.05l196.33 109.866a279.921 279.921 0 0 1-12.463 20.239l-186.313-126.14a54.852 54.852 0 0 0 2.446-3.965zm-100.078-8.273a52.908 52.908 0 0 0 1.703 4.22L24.896 395.334a277.898 277.898 0 0 1-8.866-22.028zm103.85-.056l212.14 74.918a277.998 277.998 0 0 1-8.85 22.066l-204.984-92.77a53.225 53.225 0 0 0 1.694-4.214zm-106.135-8.719c.258 1.503.582 3.005.962 4.465L9.046 350.595a278.929 278.929 0 0 1-4.999-23.225zm108.409-.05l221.794 37.737a278.528 278.528 0 0 1-4.97 23.233l-217.778-56.517c.378-1.458.699-2.956.954-4.453zm-109.208-9.481c.001 1.644.071 3.29.208 4.892L1.036 303.805A283.584 283.584 0 0 1 0 280.067zm334.992-.69l.007.606c0 7.997-.353 15.909-1.01 23.735l-224.192-18.83c.13-1.555.199-3.156.203-4.761v-.201l224.992-.55zM3.942 232.76l221.835 37.48a55.697 55.697 0 0 0-.583 4.652L.98 256.331a279.95 279.95 0 0 1 2.964-23.57zm551.95-.942a280.162 280.162 0 0 1 3.036 23.56L334.782 274.7a55.681 55.681 0 0 0-.597-4.632zM15.819 186.797l212.23 74.658a53.2 53.2 0 0 0-1.322 4.338L8.88 209.52a277.465 277.465 0 0 1 6.938-22.723zm528.041-.9a278.416 278.416 0 0 1 7.005 22.702l-217.643 57.018a53.38 53.38 0 0 0-1.332-4.322zM35.35 143.498L231.8 253.146a54.224 54.224 0 0 0-2.07 4.108L24.644 164.722a279.357 279.357 0 0 1 10.706-21.224zm488.852-.793a279.03 279.03 0 0 1 10.762 21.174l-204.776 93.212a54.389 54.389 0 0 0-2.082-4.1zM61.924 104.14l175.142 141.215a56.305 56.305 0 0 0-2.815 3.809L47.787 123.244a281.425 281.425 0 0 1 14.137-19.104zm435.587-.692a280.74 280.74 0 0 1 14.186 19.06L325.641 249.013a56.308 56.308 0 0 0-2.825-3.797zM94.74 69.82l148.933 168.627a56.746 56.746 0 0 0-3.456 3.322L77.597 86.275A281.47 281.47 0 0 1 94.74 69.82zm369.85-.588a281.769 281.769 0 0 1 17.186 16.41L319.651 241.64a57.34 57.34 0 0 0-3.458-3.304zM132.85 41.508l118.403 191.305a56.143 56.143 0 0 0-3.894 2.645L113.191 54.849a280.799 280.799 0 0 1 19.658-13.341zm293.528-.478a280.615 280.615 0 0 1 19.703 13.293L312.487 235.35a56.07 56.07 0 0 0-3.9-2.632zM175.18 20.05l84.271 208.602a53.861 53.861 0 0 0-4.153 1.888L153.557 29.87a278.758 278.758 0 0 1 21.622-9.82zm208.763-.356a278.229 278.229 0 0 1 21.672 9.768L304.527 230.456a53.304 53.304 0 0 0-4.15-1.87zm-163.386-13.6l47.537 219.9a52.817 52.817 0 0 0-4.378 1.143L197.567 12.09a277.992 277.992 0 0 1 22.989-5.996zm117.946-.203a277.805 277.805 0 0 1 23.007 5.926L296.11 227.086a53.274 53.274 0 0 0-4.397-1.133zM267.638.037l9.763 224.769c-1.603.07-3.204.206-4.761.406L243.967 2.05a281.99 281.99 0 0 1 23.67-2.014zM291.399 0c7.982.32 15.881.959 23.677 1.933l-27.919 223.255a56.972 56.972 0 0 0-4.764-.391z"/>
</svg>
